{
  "accessors": [
    {
      "bufferView": 1,
      "componentType": 5126,
      "count": 47462,
      "max": [
        15.003649711608887,
        -3.7098400592803955,
        9.7465600967407227
      ],
      "min": [
        -15.003660202026367,
        -26.201639175415039,
        -12.051059722900391
      ],
      "type": "VEC3"
    },
    {
      "bufferView": 1,
      "byteOffset": 569544,
      "componentType": 5126,
      "count": 47462,
      "max": [
        0.99999994039535522,
        0.9999733567237854,
        0.99999219179153442
      ],
      "min": [
        -0.9999423623085022,
        -0.99997001886367798,
        -0.99999326467514038
      ],
      "type": "VEC3"
    },
    {
      "bufferView": 2,
      "componentType": 5126,
      "count": 47462,
      "max": [
        0.99998259544372559,
        0.9999997615814209,
        0.99996161460876465,
        1
      ],
      "min": [
        -0.99978131055831909,
        -0.99997460842132568,
        -0.99999696016311646,
        -1
      ],
      "type": "VEC4"
    },
    {
      "bufferView": 0,
      "componentType": 5125,
      "count": 268704,
      "max": [
        47461
      ],
      "min": [
        0
      ],
      "type": "SCALAR"
    }
  ],
  "asset": {
    "extras": {
      "author": "Nana Velho (https://sketchfab.com/nanavelho)",
      "license": "CC-BY-4.0 (http://creativecommons.org/licenses/by/4.0/)",
      "source": "https://sketchfab.com/models/1aa85fcf49d846258686d009f6ab2360",
      "title": "Charizard Traditional"
    },
    "generator": "Sketchfab-3.20.6",
    "version": "2.0"
  },
  "bufferViews": [
    {
      "buffer": 0,
      "byteLength": 1074816,
      "byteOffset": 0,
      "name": "floatBufferViews",
      "target": 34963
    },
    {
      "buffer": 0,
      "byteLength": 1139088,
      "byteOffset": 1074816,
      "byteStride": 12,
      "name": "floatBufferViews",
      "target": 34962
    },
    {
      "buffer": 0,
      "byteLength": 759392,
      "byteOffset": 2213904,
      "byteStride": 16,
      "name": "floatBufferViews",
      "target": 34962
    }
  ],
  "buffers": [
    {
      "byteLength": 2973296,
      "uri": "scene.bin"
    }
  ],
  "materials": [
    {
      "doubleSided": true,
      "emissiveFactor": [
        0,
        0,
        0
      ],
      "name": "skin",
      "pbrMetallicRoughness": {
        "baseColorFactor": [
          1,
          1,
          1,
          1
        ],
        "metallicFactor": 0,
        "roughnessFactor": 0.59999999999999998
      }
    }
  ],
  "meshes": [
    {
      "name": "__charizard tradicional_0",
      "primitives": [
        {
          "attributes": {
            "NORMAL": 1,
            "POSITION": 0,
            "TANGENT": 2
          },
          "indices": 3,
          "material": 0,
          "mode": 4
        }
      ]
    }
  ],
  "nodes": [
    {
      "children": [
        1
      ],
      "name": "RootNode (gltf orientation matrix)",
      "rotation": [
        -0.70710678118654746,
        -0,
        -0,
        0.70710678118654757
      ]
    },
    {
      "children": [
        2
      ],
      "name": "RootNode (model correction matrix)"
    },
    {
      "children": [
        3
      ],
      "name": "Root"
    },
    {
      "children": [
        4
      ],
      "matrix": [
        1,
        0,
        0,
        0,
        0,
        -1,
        0,
        0,
        0,
        -0,
        -1,
        0,
        -0,
        -11.492680000000002,
        -1.7999700000000001,
        1
      ],
      "name": "__charizard tradicional"
    },
    {
      "mesh": 0,
      "name": "__charizard tradicional_0"
    }
  ],
  "scene": 0,
  "scenes": [
    {
      "name": "OSG_Scene",
      "nodes": [
        0
      ]
    }
  ]
}

